<mxfile host="app.diagrams.net" agent="Mozilla/5.0 (Windows NT 10.0; Win64; x64) AppleWebKit/537.36 (KHTML, like Gecko) Chrome/139.0.0.0 Safari/537.36 Edg/139.0.0.0" version="28.1.1">
  <diagram name="Page-1" id="Ba1RBYQ_z-IoHo63BJNb">
    <mxGraphModel dx="641" dy="513" grid="1" gridSize="10" guides="1" tooltips="1" connect="1" arrows="1" fold="1" page="1" pageScale="1" pageWidth="850" pageHeight="1100" math="0" shadow="0">
      <root>
        <mxCell id="0" />
        <mxCell id="1" parent="0" />
        <mxCell id="tdXoTMX3WU-w1lJ8c9oE-70" value="" style="edgeStyle=none;shape=wire;rounded=0;orthogonalLoop=1;jettySize=auto;html=1;dashed=1;elbow=vertical;" edge="1" parent="1" source="tdXoTMX3WU-w1lJ8c9oE-68" target="tdXoTMX3WU-w1lJ8c9oE-69">
          <mxGeometry relative="1" as="geometry" />
        </mxCell>
        <mxCell id="tdXoTMX3WU-w1lJ8c9oE-68" value="AddItem" style="shape=process;whiteSpace=wrap;html=1;backgroundOutline=1;dashed=1;" vertex="1" parent="1">
          <mxGeometry x="660" y="10" width="120" height="60" as="geometry" />
        </mxCell>
        <mxCell id="tdXoTMX3WU-w1lJ8c9oE-72" value="" style="edgeStyle=none;shape=wire;rounded=0;orthogonalLoop=1;jettySize=auto;html=1;dashed=1;elbow=vertical;" edge="1" parent="1" source="tdXoTMX3WU-w1lJ8c9oE-69" target="tdXoTMX3WU-w1lJ8c9oE-71">
          <mxGeometry relative="1" as="geometry" />
        </mxCell>
        <mxCell id="tdXoTMX3WU-w1lJ8c9oE-69" value="Load current database" style="whiteSpace=wrap;html=1;dashed=1;" vertex="1" parent="1">
          <mxGeometry x="660" y="90" width="120" height="60" as="geometry" />
        </mxCell>
        <mxCell id="tdXoTMX3WU-w1lJ8c9oE-71" value="Append Item to database with correct data" style="whiteSpace=wrap;html=1;dashed=1;" vertex="1" parent="1">
          <mxGeometry x="660" y="170" width="120" height="60" as="geometry" />
        </mxCell>
        <mxCell id="tdXoTMX3WU-w1lJ8c9oE-75" value="" style="edgeStyle=none;shape=wire;rounded=0;orthogonalLoop=1;jettySize=auto;html=1;dashed=1;elbow=vertical;" edge="1" parent="1" source="tdXoTMX3WU-w1lJ8c9oE-73">
          <mxGeometry relative="1" as="geometry">
            <mxPoint x="550" y="60" as="targetPoint" />
          </mxGeometry>
        </mxCell>
        <mxCell id="tdXoTMX3WU-w1lJ8c9oE-73" value="Start" style="rounded=1;whiteSpace=wrap;html=1;dashed=1;" vertex="1" parent="1">
          <mxGeometry x="490" y="10" width="120" height="30" as="geometry" />
        </mxCell>
        <mxCell id="tdXoTMX3WU-w1lJ8c9oE-82" value="" style="edgeStyle=none;shape=wire;rounded=0;orthogonalLoop=1;jettySize=auto;html=1;dashed=1;elbow=vertical;" edge="1" parent="1" source="tdXoTMX3WU-w1lJ8c9oE-80">
          <mxGeometry relative="1" as="geometry">
            <mxPoint x="550" y="140" as="targetPoint" />
          </mxGeometry>
        </mxCell>
        <mxCell id="tdXoTMX3WU-w1lJ8c9oE-80" value="&#xa;&lt;span style=&quot;color: rgb(0, 0, 0); font-family: Helvetica; font-size: 12px; font-style: normal; font-variant-ligatures: normal; font-variant-caps: normal; font-weight: 400; letter-spacing: normal; orphans: 2; text-align: center; text-indent: 0px; text-transform: none; widows: 2; word-spacing: 0px; -webkit-text-stroke-width: 0px; white-space: normal; background-color: rgb(236, 236, 236); text-decoration-thickness: initial; text-decoration-style: initial; text-decoration-color: initial; display: inline !important; float: none;&quot;&gt;Load inventory screen&lt;/span&gt;&#xa;&#xa;" style="rounded=0;whiteSpace=wrap;html=1;dashed=1;" vertex="1" parent="1">
          <mxGeometry x="490" y="60" width="120" height="60" as="geometry" />
        </mxCell>
        <mxCell id="tdXoTMX3WU-w1lJ8c9oE-86" value="" style="edgeStyle=none;shape=wire;rounded=0;orthogonalLoop=1;jettySize=auto;html=1;dashed=1;elbow=vertical;entryX=1;entryY=0.5;entryDx=0;entryDy=0;" edge="1" parent="1" source="tdXoTMX3WU-w1lJ8c9oE-84" target="tdXoTMX3WU-w1lJ8c9oE-92">
          <mxGeometry relative="1" as="geometry">
            <mxPoint x="440" y="200" as="targetPoint" />
          </mxGeometry>
        </mxCell>
        <mxCell id="tdXoTMX3WU-w1lJ8c9oE-88" value="" style="edgeStyle=none;shape=wire;rounded=0;orthogonalLoop=1;jettySize=auto;html=1;dashed=1;elbow=vertical;" edge="1" parent="1" source="tdXoTMX3WU-w1lJ8c9oE-84" target="tdXoTMX3WU-w1lJ8c9oE-87">
          <mxGeometry relative="1" as="geometry" />
        </mxCell>
        <mxCell id="tdXoTMX3WU-w1lJ8c9oE-84" value="Does user need to change database?" style="rhombus;whiteSpace=wrap;html=1;dashed=1;" vertex="1" parent="1">
          <mxGeometry x="490" y="140" width="120" height="120" as="geometry" />
        </mxCell>
        <mxCell id="tdXoTMX3WU-w1lJ8c9oE-91" style="edgeStyle=none;shape=wire;rounded=0;orthogonalLoop=1;jettySize=auto;html=1;entryX=0.5;entryY=0;entryDx=0;entryDy=0;dashed=1;elbow=vertical;exitX=0.5;exitY=0;exitDx=0;exitDy=0;" edge="1" parent="1" source="tdXoTMX3WU-w1lJ8c9oE-85" target="tdXoTMX3WU-w1lJ8c9oE-84">
          <mxGeometry relative="1" as="geometry">
            <Array as="points">
              <mxPoint x="250" y="140" />
              <mxPoint x="400" y="130" />
            </Array>
          </mxGeometry>
        </mxCell>
        <mxCell id="tdXoTMX3WU-w1lJ8c9oE-85" value="Show items that need reviewing" style="whiteSpace=wrap;html=1;dashed=1;" vertex="1" parent="1">
          <mxGeometry x="190" y="160" width="120" height="50" as="geometry" />
        </mxCell>
        <mxCell id="tdXoTMX3WU-w1lJ8c9oE-100" value="" style="edgeStyle=none;shape=wire;rounded=0;orthogonalLoop=1;jettySize=auto;html=1;dashed=1;elbow=vertical;" edge="1" parent="1" source="tdXoTMX3WU-w1lJ8c9oE-87" target="tdXoTMX3WU-w1lJ8c9oE-99">
          <mxGeometry relative="1" as="geometry" />
        </mxCell>
        <mxCell id="tdXoTMX3WU-w1lJ8c9oE-87" value="Show editing screen" style="whiteSpace=wrap;html=1;dashed=1;" vertex="1" parent="1">
          <mxGeometry x="490" y="300" width="120" height="40" as="geometry" />
        </mxCell>
        <mxCell id="tdXoTMX3WU-w1lJ8c9oE-89" value="No" style="text;html=1;align=center;verticalAlign=middle;whiteSpace=wrap;rounded=0;" vertex="1" parent="1">
          <mxGeometry x="440" y="160" width="50" height="40" as="geometry" />
        </mxCell>
        <mxCell id="tdXoTMX3WU-w1lJ8c9oE-90" value="Yes" style="text;html=1;align=center;verticalAlign=middle;whiteSpace=wrap;rounded=0;" vertex="1" parent="1">
          <mxGeometry x="490" y="270" width="60" height="30" as="geometry" />
        </mxCell>
        <mxCell id="tdXoTMX3WU-w1lJ8c9oE-93" style="edgeStyle=none;shape=wire;rounded=0;orthogonalLoop=1;jettySize=auto;html=1;entryX=1;entryY=0.5;entryDx=0;entryDy=0;dashed=1;elbow=vertical;" edge="1" parent="1" source="tdXoTMX3WU-w1lJ8c9oE-92" target="tdXoTMX3WU-w1lJ8c9oE-85">
          <mxGeometry relative="1" as="geometry" />
        </mxCell>
        <mxCell id="tdXoTMX3WU-w1lJ8c9oE-96" style="edgeStyle=none;shape=wire;rounded=0;orthogonalLoop=1;jettySize=auto;html=1;dashed=1;elbow=vertical;entryX=0.5;entryY=0;entryDx=0;entryDy=0;" edge="1" parent="1" source="tdXoTMX3WU-w1lJ8c9oE-92" target="tdXoTMX3WU-w1lJ8c9oE-97">
          <mxGeometry relative="1" as="geometry">
            <mxPoint x="390" y="280" as="targetPoint" />
            <Array as="points">
              <mxPoint x="390" y="420" />
              <mxPoint x="550" y="420" />
            </Array>
          </mxGeometry>
        </mxCell>
        <mxCell id="tdXoTMX3WU-w1lJ8c9oE-92" value="Are there items that need review?" style="rhombus;whiteSpace=wrap;html=1;dashed=1;" vertex="1" parent="1">
          <mxGeometry x="340" y="135" width="100" height="100" as="geometry" />
        </mxCell>
        <mxCell id="tdXoTMX3WU-w1lJ8c9oE-94" value="Yes" style="text;html=1;align=center;verticalAlign=middle;whiteSpace=wrap;rounded=0;" vertex="1" parent="1">
          <mxGeometry x="300" y="150" width="60" height="30" as="geometry" />
        </mxCell>
        <mxCell id="tdXoTMX3WU-w1lJ8c9oE-95" value="No" style="text;html=1;align=center;verticalAlign=middle;whiteSpace=wrap;rounded=0;" vertex="1" parent="1">
          <mxGeometry x="320" y="235" width="60" height="30" as="geometry" />
        </mxCell>
        <mxCell id="tdXoTMX3WU-w1lJ8c9oE-97" value="Show inventory main screen" style="rounded=0;whiteSpace=wrap;html=1;dashed=1;" vertex="1" parent="1">
          <mxGeometry x="490" y="440" width="120" height="40" as="geometry" />
        </mxCell>
        <mxCell id="tdXoTMX3WU-w1lJ8c9oE-101" value="" style="edgeStyle=none;shape=wire;rounded=0;orthogonalLoop=1;jettySize=auto;html=1;dashed=1;elbow=vertical;" edge="1" parent="1" source="tdXoTMX3WU-w1lJ8c9oE-99" target="tdXoTMX3WU-w1lJ8c9oE-97">
          <mxGeometry relative="1" as="geometry" />
        </mxCell>
        <mxCell id="tdXoTMX3WU-w1lJ8c9oE-99" value="Wait for user to exit editing screen" style="whiteSpace=wrap;html=1;dashed=1;" vertex="1" parent="1">
          <mxGeometry x="490" y="360" width="120" height="40" as="geometry" />
        </mxCell>
      </root>
    </mxGraphModel>
  </diagram>
</mxfile>
